<svg viewBox="0 0 1000 1000" xmlns="http://www.w3.org/2000/svg"><defs><clipPath id="b"><path fill="currentColor" d="M867.5 624q-26.5 124-137 185t-236 77.5Q369 903 286.5 809T139 607.5Q74 500 94.5 360t151-191q130.5-51 258-61.5t262.5 45Q901 208 897.5 354t-30 270Z"/></clipPath><filter id="a" x="-50vw" y="-50vh" width="100vw" height="100vh"><feFlood flood-color="#fff" result="neutral-gray"/><feTurbulence type="fractalNoise" baseFrequency="2.5" numOctaves="100" stitchTiles="stitch" result="noise"/><feColorMatrix in="noise" type="saturate" values="0" result="destaturatedNoise"/><feComponentTransfer in="desaturatedNoise" result="theNoise"><feFuncA type="table" tableValues="0 0 0.1 0"/></feComponentTransfer><feBlend in="SourceGraphic" in2="theNoise" mode="soft-light" result="noisy-image"/></filter></defs><g filter="url(#a)" clip-path="url(#b)"><path fill="#41a0a3" d="M867.5 624q-26.5 124-137 185t-236 77.5Q369 903 286.5 809T139 607.5Q74 500 94.5 360t151-191q130.5-51 258-61.5t262.5 45Q901 208 897.5 354t-30 270Z"/></g></svg>